<svg width="50" height="50" viewBox="0 0 50 50" fill="none" xmlns="http://www.w3.org/2000/svg">
<circle cx="25" cy="25" r="25" fill="#7F7F7F"/>
<path d="M17.8203 33.792C17.8203 33.2939 17.9131 32.791 18.0986 32.2832C18.2842 31.7754 18.5723 31.2969 18.9629 30.8477C20.3887 31.4727 21.6289 31.9512 22.6836 32.2832C23.748 32.6152 24.8418 32.7812 25.9648 32.7812C26.1699 32.7812 26.3799 32.7617 26.5947 32.7227C26.8193 32.6836 26.9951 32.6299 27.1221 32.5615C27.1709 32.4541 27.21 32.3174 27.2393 32.1514C27.2686 31.9756 27.2832 31.834 27.2832 31.7266C27.2832 31.248 27.0537 30.8379 26.5947 30.4961C26.1357 30.1543 25.5303 29.8125 24.7783 29.4707L24.2656 29.2217C22.8008 28.4697 21.624 27.7959 20.7354 27.2002C19.8564 26.5947 19.1094 25.8037 18.4941 24.8271C17.8887 23.8408 17.5859 22.6348 17.5859 21.209C17.5859 19.1191 18.167 17.4443 19.3291 16.1846C20.501 14.9248 22.3613 14.2949 24.9102 14.2949C27.0879 14.2949 28.8115 14.4268 30.0811 14.6904C30.6084 15.0029 31.0674 15.3301 31.458 15.6719C31.8584 16.0039 32.2393 16.4092 32.6006 16.8877C32.6006 17.5713 32.5322 18.3135 32.3955 19.1143C32.2686 19.9053 32.0879 20.6328 31.8535 21.2969C31.6289 21.9609 31.3848 22.4395 31.1211 22.7324C30.8965 22.8398 30.6475 22.9229 30.374 22.9814C30.1006 23.0303 29.7637 23.0547 29.3633 23.0547C28.9434 23.0547 28.6016 23.0254 28.3379 22.9668C28.0742 22.9082 27.8301 22.8105 27.6055 22.6738L27.1514 19.627C26.585 19.4707 25.9844 19.3584 25.3496 19.29C24.7148 19.2119 24.2852 19.1777 24.0605 19.1875C23.6992 19.3535 23.4502 19.5879 23.3135 19.8906C23.1865 20.1836 23.123 20.5352 23.123 20.9453C23.123 21.3848 23.2402 21.7656 23.4746 22.0879C23.7188 22.4004 24.0117 22.6592 24.3535 22.8643C24.6953 23.0693 25.1348 23.2988 25.6719 23.5527L26.3164 23.875C27.7129 24.6074 28.8115 25.2471 29.6123 25.7939C30.4131 26.3408 31.082 27.0342 31.6191 27.874C32.166 28.7041 32.4395 29.71 32.4395 30.8916C32.4395 32.2686 32.0781 33.4551 31.3555 34.4512C30.6328 35.4375 29.7051 36.1504 28.5723 36.5898C27.957 36.834 27.2783 37.0098 26.5361 37.1172C25.7939 37.2246 24.9346 37.2783 23.958 37.2783C23.2939 37.2783 22.5811 37.1953 21.8193 37.0293C21.0576 36.8633 20.3154 36.5703 19.5928 36.1504C18.8799 35.7305 18.3086 35.1689 17.8789 34.4658C17.8398 34.2803 17.8203 34.0557 17.8203 33.792Z" fill="white"/>
</svg>
