<svg width="50" height="50" viewBox="0 0 50 50" fill="none" xmlns="http://www.w3.org/2000/svg">
<circle cx="25" cy="25" r="25" fill="#7F7F7F"/>
<path fill-rule="evenodd" clip-rule="evenodd" d="M33.1667 16.3333C35.0275 16.3333 36.5541 17.7934 36.6607 19.6279L36.6667 19.8333V31.4999C36.6667 33.3607 35.2065 34.8873 33.372 34.994L33.1667 34.9999H29.0834L25.9334 39.1999C25.7129 39.4939 25.3675 39.6666 25 39.6666C24.6785 39.6666 24.3739 39.5344 24.155 39.3044L24.0667 39.1999L20.9167 34.9999H16.8334C14.9726 34.9999 13.446 33.5397 13.3393 31.7052L13.3334 31.4999V19.8333C13.3334 17.9725 14.7935 16.4459 16.6281 16.3392L16.8334 16.3333H33.1667ZM33.1667 18.6666H16.8334C16.2365 18.6666 15.7421 19.1183 15.6746 19.6975L15.6667 19.8333V31.4999C15.6667 32.0968 16.1184 32.5911 16.6976 32.6587L16.8334 32.6666H21.5C21.8216 32.6666 22.1262 32.7988 22.345 33.0288L22.4334 33.1332L25 36.5551L27.5667 33.1332C27.7596 32.876 28.0482 32.7116 28.3635 32.6746L28.5 32.6666H33.1667C33.7636 32.6666 34.2579 32.2149 34.3255 31.6357L34.3334 31.4999V19.8333C34.3334 19.2363 33.8817 18.742 33.3025 18.6745L33.1667 18.6666ZM30.8334 26.8333C31.4774 26.8333 32 27.3559 32 27.9999C32 28.5979 31.5494 29.0913 30.9694 29.1587L30.8334 29.1666H19.1667C18.5227 29.1666 18 28.6439 18 27.9999C18 27.4019 18.4507 26.9085 19.0307 26.8411L19.1667 26.8333H30.8334ZM30.8334 22.1666C31.4774 22.1666 32 22.6893 32 23.3333C32 23.9313 31.5494 24.4246 30.9694 24.4921L30.8334 24.4999H19.1667C18.5227 24.4999 18 23.9773 18 23.3333C18 22.7353 18.4507 22.2419 19.0307 22.1744L19.1667 22.1666H30.8334Z" fill="white"/>
</svg>
