<svg width="50" height="50" viewBox="0 0 50 50" fill="none" xmlns="http://www.w3.org/2000/svg">
<circle cx="25" cy="25" r="25" fill="#7F7F7F"/>
<path fill-rule="evenodd" clip-rule="evenodd" d="M15.6667 17C15.6667 14.7909 17.4575 13 19.6667 13C21.8758 13 23.6667 14.7909 23.6667 17V27.6667C23.6667 29.8759 21.8758 31.6667 19.6667 31.6667C17.4575 31.6667 15.6667 29.8759 15.6667 27.6667V17ZM19.6667 15.6667C18.9303 15.6667 18.3333 16.2636 18.3333 17V27.6667C18.3333 28.4031 18.9303 29 19.6667 29C20.403 29 21 28.4031 21 27.6667V17C21 16.2636 20.403 15.6667 19.6667 15.6667ZM13 35.6667C13 34.9303 13.597 34.3333 14.3333 34.3333H35.6667C36.4031 34.3333 37 34.9303 37 35.6667C37 36.4031 36.4031 37 35.6667 37H14.3333C13.597 37 13 36.4031 13 35.6667ZM30.3333 21C28.1241 21 26.3333 22.7908 26.3333 25V27.6667C26.3333 29.8759 28.1241 31.6667 30.3333 31.6667C32.5425 31.6667 34.3333 29.8759 34.3333 27.6667V25C34.3333 22.7908 32.5425 21 30.3333 21ZM29 25C29 24.2636 29.5969 23.6667 30.3333 23.6667C31.0697 23.6667 31.6667 24.2636 31.6667 25V27.6667C31.6667 28.4031 31.0697 29 30.3333 29C29.5969 29 29 28.4031 29 27.6667V25Z" fill="white"/>
</svg>
