<svg width="50" height="50" viewBox="0 0 50 50" fill="none" xmlns="http://www.w3.org/2000/svg">
<circle cx="25" cy="25" r="25" fill="#7F7F7F"/>
<path fill-rule="evenodd" clip-rule="evenodd" d="M36.988 21.5195C36.88 23.8148 35.2492 26.9587 32.0932 30.9489C28.8304 35.1165 26.0692 37.2003 23.8108 37.2003C22.4116 37.2003 21.2284 35.9288 20.2612 33.3864L18.3244 26.3939C17.6068 23.8503 16.8364 22.5782 16.012 22.5782C15.832 22.5782 15.2044 22.9498 14.1292 23.6921L13 22.2618C14.1832 21.2371 15.3484 20.2122 16.4956 19.1886C18.0736 17.8459 19.2568 17.1402 20.0452 17.0693C21.91 16.8931 23.0572 18.1462 23.488 20.8304C23.9536 23.7273 24.2764 25.5277 24.4564 26.2345C24.994 28.6362 25.5856 29.8368 26.2312 29.8368C26.7328 29.8368 27.4864 29.0602 28.4896 27.506C29.494 25.9517 30.0316 24.7684 30.1036 23.9564C30.2464 22.6137 29.7088 21.9437 28.4896 21.9437C27.916 21.9437 27.3244 22.067 26.7148 22.314C27.898 18.5353 30.1576 16.698 33.4924 16.8044C35.9656 16.8753 37.132 18.4464 36.988 21.5195Z" fill="white"/>
</svg>
